<svg width="99" height="99" viewBox="0 0 99 99" fill="none" xmlns="http://www.w3.org/2000/svg">
<path d="M85.4801 26.7715C86.9602 27.112 88.4361 26.188 88.7763 24.7077C89.1167 23.2276 88.1924 21.7517 86.7124 21.4115L68.5192 17.229C67.0392 16.8886 65.5635 17.8126 65.2231 19.2929C64.8829 20.773 65.8069 22.2489 67.2869 22.5891L85.4801 26.7715Z" fill="#333333"/>
<path fill-rule="evenodd" clip-rule="evenodd" d="M77 44C89.1503 44 99 34.1503 99 22C99 9.84973 89.1503 0 77 0C64.8497 0 55 9.84973 55 22C55 34.1503 64.8497 44 77 44ZM77 38.5C86.1127 38.5 93.5 31.1127 93.5 22C93.5 12.8873 86.1127 5.5 77 5.5C67.8873 5.5 60.5 12.8873 60.5 22C60.5 31.1127 67.8873 38.5 77 38.5Z" fill="#333333"/>
<path fill-rule="evenodd" clip-rule="evenodd" d="M29.6401 8.92419C27.8594 4.71172 21.9046 4.28681 19.5126 8.20155L0.805233 38.8157C-1.35275 42.3473 1.06005 46.8559 5.26873 47.1562L37.9013 49.4846C42.1099 49.7849 45.1718 45.6671 43.5655 41.8668L29.6401 8.92419ZM24.2292 11.0358C24.225 11.0407 24.2168 11.0512 24.2058 11.0693L5.52751 41.6361L5.5318 41.6391C5.53716 41.6427 5.54563 41.6474 5.56029 41.6523C5.57412 41.6573 5.60525 41.6661 5.66017 41.6699L38.2927 43.9984C38.3477 44.0025 38.3812 43.9981 38.3983 43.9948C38.4164 43.9915 38.4291 43.9868 38.4392 43.9819C38.4524 43.9758 38.4656 43.967 38.4775 43.9563L24.5743 11.0657C24.5691 11.0534 24.5647 11.0451 24.5619 11.0399C24.5457 11.0305 24.4962 11.0072 24.4142 11.0011C24.3235 10.9947 24.2627 11.0149 24.2429 11.0245L24.2363 11.0283L24.2333 11.0311L24.2292 11.0358Z" fill="#04DCCF"/>
<path fill-rule="evenodd" clip-rule="evenodd" d="M80.8085 83.4878C89.0673 79.6367 92.6406 69.8195 88.7893 61.5604C84.9382 53.3016 75.1209 49.7285 66.8621 53.5796L36.954 67.526C28.6949 71.3773 25.1218 81.1943 28.9729 89.4534C32.8243 97.7122 42.6412 101.286 50.9003 97.4341L80.8085 83.4878ZM39.2783 72.5106C33.7722 75.0783 31.3902 81.623 33.9576 87.1288C36.5252 92.6348 43.07 95.0169 48.576 92.4495L60.8575 86.7223L51.5609 66.7859L39.2783 72.5106ZM65.8422 84.398L56.5447 64.4592L69.1864 58.5643C74.6925 55.9969 81.2372 58.3789 83.8046 63.885C86.372 69.3907 83.99 75.9357 78.4839 78.5031L65.8422 84.398Z" fill="#FFD43E"/>
</svg>
