<svg width="110" height="110" viewBox="0 0 110 110" fill="none" xmlns="http://www.w3.org/2000/svg">
<path fill-rule="evenodd" clip-rule="evenodd" d="M55 5.5C27.662 5.5 5.5 27.662 5.5 55C5.5 82.338 27.662 104.5 55 104.5C82.338 104.5 104.5 82.338 104.5 55C104.5 27.662 82.338 5.5 55 5.5ZM0 55C0 24.6243 24.6243 0 55 0C85.3757 0 110 24.6243 110 55C110 85.3757 85.3757 110 55 110C24.6243 110 0 85.3757 0 55ZM33 71.5V27.5C33 25.9812 34.2312 24.75 35.75 24.75H52.25C59.8438 24.75 66 30.9062 66 38.5C66 45.7251 60.4274 51.6486 53.3456 52.2071L66 64.8612L77.8055 53.0557L81.6948 56.9448L69.8891 68.7503L81.6945 80.5557L77.8052 84.4448L66 72.6393L54.1948 84.4448L50.3055 80.5557L62.111 68.7503L45.6107 52.25H38.5V71.5H33ZM38.5 46.75H52.25C56.8065 46.75 60.5 43.0565 60.5 38.5C60.5 33.9435 56.8065 30.25 52.25 30.25H38.5V46.75Z" fill="#FB0202"/>
</svg>
