<svg width="99" height="99" viewBox="0 0 99 99" fill="none" xmlns="http://www.w3.org/2000/svg">
<path fill-rule="evenodd" clip-rule="evenodd" d="M11 33H16.5V60.5H82.5V33H88V60.5H94.875C95.6343 60.5 96.25 61.1157 96.25 61.875V64.625C96.25 65.3843 95.6343 66 94.875 66H4.125C3.36562 66 2.75 65.3843 2.75 64.625V61.875C2.75 61.1157 3.36562 60.5 4.125 60.5H11V33ZM11 77V93.5H88V77H11ZM8.25 71.5C6.73123 71.5 5.5 72.7312 5.5 74.25V96.25C5.5 97.7688 6.73123 99 8.25 99H90.75C92.2688 99 93.5 97.7688 93.5 96.25V74.25C93.5 72.7312 92.2688 71.5 90.75 71.5H8.25Z" fill="#B9740C"/>
<path fill-rule="evenodd" clip-rule="evenodd" d="M11.5192 5.5L5.61973 21.7605C5.54064 21.9786 5.5 22.2093 5.5 22.4425V29.0153C5.5 31.2378 7.28054 33 9.42857 33C11.5767 33 13.357 31.2378 13.357 29.0153C13.357 27.4964 14.5885 26.2652 16.107 26.2652C17.6258 26.2652 18.857 27.4964 18.857 29.0153C18.857 31.2378 20.6377 33 22.7857 33C24.9337 33 26.7143 31.2378 26.7143 29.0153C26.7143 27.4964 27.9455 26.2652 29.4643 26.2652C30.9831 26.2652 32.2143 27.4964 32.2143 29.0153C32.2143 31.2378 33.9949 33 36.143 33C38.2899 33 40.0697 31.2395 40.0714 29.0186C40.0727 27.5008 41.3036 26.2708 42.8214 26.2708C44.3394 26.2708 45.5703 27.5008 45.5714 29.0186C45.5733 31.2395 47.3531 33 49.5 33C51.648 33 53.4286 31.2378 53.4286 29.0153C53.4286 27.4964 54.6598 26.2652 56.1786 26.2652C57.6975 26.2652 58.9286 27.4964 58.9286 29.0153C58.9286 31.2378 60.709 33 62.857 33C65.0042 33 66.784 31.2395 66.7857 29.0186C66.7871 27.5008 68.0177 26.2708 69.5357 26.2708C71.0537 26.2708 72.2846 27.5008 72.2857 29.0186C72.2876 31.2395 74.0674 33 76.2143 33C78.3623 33 80.143 31.2378 80.143 29.0153C80.143 27.4964 81.3741 26.2652 82.893 26.2652C84.4115 26.2652 85.643 27.4964 85.643 29.0153C85.643 31.2378 87.4233 33 89.5714 33C91.7194 33 93.5 31.2378 93.5 29.0153V22.4425C93.5 22.2093 93.4593 21.9786 93.3804 21.7605L87.4808 5.5H11.5192ZM87.3851 5.23586C87.3848 5.23564 87.3851 5.23611 87.3851 5.23586ZM82.893 35.7104C81.1891 37.4316 78.8304 38.5 76.2143 38.5C73.598 38.5 71.2396 37.4316 69.5357 35.7104C67.8321 37.4316 65.4734 38.5 62.857 38.5C60.241 38.5 57.8823 37.4316 56.1786 35.7104C54.4747 37.4316 52.1163 38.5 49.5 38.5C46.8837 38.5 44.5253 37.4316 42.8214 35.7104C41.1177 37.4316 38.759 38.5 36.143 38.5C33.5266 38.5 31.1679 37.4316 29.4643 35.7104C27.7604 37.4316 25.402 38.5 22.7857 38.5C20.1696 38.5 17.8109 37.4316 16.107 35.7104C14.4034 37.4316 12.0447 38.5 9.42857 38.5C4.19966 38.5 0 34.2317 0 29.0153V22.4425C0 21.5704 0.152019 20.7047 0.449487 19.8847L6.44498 3.35937C7.1728 1.35328 9.07533 0 11.2252 0H87.7748C89.9247 0 91.8272 1.35328 92.5551 3.3594L98.5507 19.8847C98.8479 20.7047 99 21.5704 99 22.4425V29.0153C99 34.2317 94.8002 38.5 89.5714 38.5C86.9553 38.5 84.5966 37.4316 82.893 35.7104Z" fill="#F0AC29"/>
<path d="M22 53.625C22 52.8657 22.6157 52.25 23.375 52.25H31.625C32.3843 52.25 33 52.8657 33 53.625V59.125C33 59.8843 32.3843 60.5 31.625 60.5H23.375C22.6157 60.5 22 59.8843 22 59.125V53.625Z" fill="#FC1616"/>
<path d="M27.5 56.375C27.5 55.6157 28.1157 55 28.875 55H37.125C37.8843 55 38.5 55.6157 38.5 56.375V59.125C38.5 59.8843 37.8843 60.5 37.125 60.5H28.875C28.1157 60.5 27.5 59.8843 27.5 59.125V56.375Z" fill="#0EFFF1"/>
<path d="M49.5 56.375C49.5 58.6531 47.6531 60.5 45.375 60.5C43.0969 60.5 41.25 58.6531 41.25 56.375C41.25 54.0969 43.0969 52.25 45.375 52.25C47.6531 52.25 49.5 54.0969 49.5 56.375Z" fill="#971212"/>
</svg>
